HIERARCHY
ROOT joint_Root
{
	OFFSET 0.0 0.0 0.0
	CHANNELS 6 Xposition Yposition Zposition Zrotation Xrotation Yrotation 
	JOINT Hips
	{
		OFFSET 4.5925 91.4895 -427.239
		CHANNELS 6 Xposition Yposition Zposition Zrotation Xrotation Yrotation 
		JOINT Spine
		{
			OFFSET 15.7357 0.0 0.0
			CHANNELS 6 Xposition Yposition Zposition Zrotation Xrotation Yrotation 
			JOINT Chest
			{
				OFFSET 8.98455 -0.406207 0.0
				CHANNELS 6 Xposition Yposition Zposition Zrotation Xrotation Yrotation 
				JOINT Neck
				{
					OFFSET 16.3773 0.0 0.0
					CHANNELS 6 Xposition Yposition Zposition Zrotation Xrotation Yrotation 
					JOINT Head
					{
						OFFSET 6.45672 0.0 0.0
						CHANNELS 6 Xposition Yposition Zposition Zrotation Xrotation Yrotation 
						End Site
						{
							OFFSET 0.0 0.0 0.0
						}
					}
				}
				JOINT Shoulder_L
				{
					OFFSET 12.9942 -0.242716 4.98039
					CHANNELS 6 Xposition Yposition Zposition Zrotation Xrotation Yrotation 
					JOINT UpperArm_L
					{
						OFFSET 5.34809 0.0 0.0
						CHANNELS 6 Xposition Yposition Zposition Zrotation Xrotation Yrotation 
						JOINT LowerArm_L
						{
							OFFSET 24.3286 1.87007e-05 0.0
							CHANNELS 6 Xposition Yposition Zposition Zrotation Xrotation Yrotation 
							JOINT Hand_L
							{
								OFFSET 22.2916 0.0 0.0
								CHANNELS 6 Xposition Yposition Zposition Zrotation Xrotation Yrotation 
								End Site
								{
									OFFSET 0.0 0.0 0.0
								}
							}
						}
					}
				}
				JOINT Shoulder_R
				{
					OFFSET 12.9945 -0.242716 -4.98039
					CHANNELS 6 Xposition Yposition Zposition Zrotation Xrotation Yrotation 
					JOINT UpperArm_R
					{
						OFFSET -5.34813 0.0 0.0
						CHANNELS 6 Xposition Yposition Zposition Zrotation Xrotation Yrotation 
						JOINT LowerArm_R
						{
							OFFSET -24.3289 0.000322201 0.0
							CHANNELS 6 Xposition Yposition Zposition Zrotation Xrotation Yrotation 
							JOINT Hand_R
							{
								OFFSET -22.2915 -0.000108084 0.0
								CHANNELS 6 Xposition Yposition Zposition Zrotation Xrotation Yrotation 
								End Site
								{
									OFFSET 0.0 0.0 0.0
								}
							}
						}
					}
				}
			}
		}
		JOINT UpperLeg_L
		{
			OFFSET -2.19248 -6.46944 0.0
			CHANNELS 6 Xposition Yposition Zposition Zrotation Xrotation Yrotation 
			JOINT LowerLeg_L
			{
				OFFSET 39.0811 0.0 -1.23785e-05
				CHANNELS 6 Xposition Yposition Zposition Zrotation Xrotation Yrotation 
				JOINT Foot_L
				{
					OFFSET 40.9854 0.0 -1.26872e-05
					CHANNELS 6 Xposition Yposition Zposition Zrotation Xrotation Yrotation 
					JOINT Toes_L
					{
						OFFSET 11.7543 0.0 0.0
						CHANNELS 6 Xposition Yposition Zposition Zrotation Xrotation Yrotation 
						End Site
						{
							OFFSET 0.0 0.0 0.0
						}
					}
				}
			}
		}
		JOINT UpperLeg_R
		{
			OFFSET -2.19251 6.46944 0.0
			CHANNELS 6 Xposition Yposition Zposition Zrotation Xrotation Yrotation 
			JOINT LowerLeg_R
			{
				OFFSET -39.0811 -0.00228153 -0.0401928
				CHANNELS 6 Xposition Yposition Zposition Zrotation Xrotation Yrotation 
				JOINT Foot_R
				{
					OFFSET -40.9854 0.0 0.0
					CHANNELS 6 Xposition Yposition Zposition Zrotation Xrotation Yrotation 
					JOINT Toes_R
					{
						OFFSET -11.7543 0.0 0.0
						CHANNELS 6 Xposition Yposition Zposition Zrotation Xrotation Yrotation 
						End Site
						{
							OFFSET 0.0 0.0 0.0
						}
					}
				}
			}
		}
	}
}
MOTION
Frames:	5
Frame Time:	0.0333333
0.000000 0.000000 0.000000 0.000000 0.000000 -0.000000 1.106120 90.412000 2.530320 89.278100 -5.532820 12.113100 15.735700 0.000005 -0.000001 88.299000 83.875400 -89.221800 8.984550 -0.406207 -0.000000 4.475750 -0.336500 -1.830520 16.377300 -0.000001 -0.000001 36.183200 -5.227860 -0.217470 6.456720 -0.000001 -0.000000 16.448100 -7.643250 -11.091200 12.994200 -0.242716 4.980390 -86.073500 -9.130650 -66.609400 5.348090 -0.000007 -0.000001 -61.096800 -44.841000 -94.879400 24.328600 0.000019 0.000005 18.125700 11.884200 -57.825900 22.291600 -0.000001 0.000005 18.294600 5.309690 -0.201097 12.994500 -0.242716 -4.980390 92.535300 -8.428140 -73.190700 -5.348130 -0.000001 -0.000004 -53.824900 -37.452300 -85.522900 -24.328900 0.000322 -0.000009 6.009300 3.333840 -61.087800 -22.291500 -0.000108 -0.000004 29.432200 5.468370 -5.309580 -2.192480 -6.469440 -0.000000 -173.864000 -16.054600 4.351840 39.081100 -0.000007 -0.000012 -0.180317 0.296083 31.342100 40.985400 -0.000006 -0.000013 1.157630 4.748600 -73.059400 11.754300 -0.000000 0.000003 -0.000114 -0.001155 -16.621700 -2.192510 6.469440 -0.000001 171.095000 21.158700 -174.241000 -39.081100 -0.002282 -0.040193 -0.164925 0.287479 30.335400 -40.985400 0.000008 0.000006 3.651700 14.437700 -72.986000 -11.754300 -0.000006 -0.000006 -0.001400 -0.020933 -17.424300
0.000000 0.000000 0.000000 0.000000 0.000000 -0.000000 1.140870 90.419200 2.462840 89.283800 -5.486660 12.212600 15.735700 0.000005 -0.000001 88.532800 83.864800 -89.466900 8.984550 -0.406207 -0.000000 4.498720 -0.287023 -1.854730 16.377300 -0.000001 -0.000001 36.263800 -5.299200 -0.170306 6.456720 -0.000001 -0.000000 16.601800 -7.778720 -10.992600 12.994200 -0.242716 4.980390 -86.047200 -9.140030 -66.490900 5.348090 -0.000007 -0.000001 -61.515100 -45.027900 -95.339900 24.328600 0.000019 0.000005 18.026700 11.764700 -57.931800 22.291600 -0.000001 0.000005 18.565200 5.311770 -0.260363 12.994500 -0.242716 -4.980390 92.558200 -8.446660 -73.081700 -5.348130 -0.000001 -0.000004 -54.098900 -37.720700 -85.860300 -24.328900 0.000322 -0.000009 6.025640 3.333850 -61.154000 -22.291500 -0.000108 -0.000004 29.536900 5.469120 -5.337580 -2.192480 -6.469440 -0.000000 -173.858000 -16.095500 4.388450 39.081100 -0.000007 -0.000012 -0.178597 0.293136 31.352700 40.985400 -0.000006 -0.000013 1.213970 4.829270 -73.011700 11.754300 -0.000000 0.000003 -0.000113 -0.001145 -16.621400 -2.192510 6.469440 -0.000001 171.014000 21.170600 -174.159000 -39.081100 -0.002282 -0.040193 -0.176099 0.307013 30.299600 -40.985400 0.000008 0.000006 3.466870 14.493000 -72.871100 -11.754300 -0.000006 -0.000006 -0.001365 -0.020463 -17.405200
0.000000 0.000000 0.000000 0.000000 0.000000 -0.000000 1.167440 90.416900 2.408790 89.275700 -5.411580 12.353100 15.735700 0.000005 -0.000001 88.636000 83.847900 -89.577600 8.984550 -0.406207 -0.000000 4.533260 -0.265844 -1.870670 16.377300 -0.000001 -0.000001 36.449200 -5.365320 -0.226974 6.456720 -0.000001 -0.000000 16.666300 -7.856660 -10.765200 12.994200 -0.242716 4.980390 -86.029500 -9.126970 -66.367100 5.348090 -0.000007 -0.000001 -61.827700 -45.217700 -95.684300 24.328600 0.000019 0.000005 18.039800 11.681100 -58.132700 22.291600 -0.000001 0.000005 18.809500 5.310280 -0.218350 12.994500 -0.242716 -4.980390 92.566400 -8.434780 -73.008400 -5.348130 -0.000001 -0.000004 -54.325700 -37.949100 -86.157300 -24.328900 0.000322 -0.000009 6.091540 3.356280 -61.256900 -22.291500 -0.000108 -0.000004 29.656900 5.469760 -5.361740 -2.192480 -6.469440 -0.000000 -173.841000 -16.024000 4.462510 39.081100 -0.000007 -0.000012 -0.181072 0.296654 31.399400 40.985400 -0.000006 -0.000013 1.240910 4.848750 -72.999200 11.754300 -0.000000 0.000003 -0.000112 -0.001130 -16.620800 -2.192510 6.469440 -0.000001 170.875000 21.283200 -174.002000 -39.081100 -0.002282 -0.040193 -0.191241 0.333472 30.258900 -40.985400 0.000008 0.000006 3.111780 14.671800 -72.713900 -11.754300 -0.000006 -0.000006 -0.001406 -0.021015 -17.427700
0.000000 0.000000 0.000000 0.000000 0.000000 -0.000000 1.196230 90.425300 2.343620 89.258800 -5.350080 12.472500 15.735700 0.000005 -0.000001 88.711400 83.830700 -89.650200 8.984550 -0.406207 -0.000000 4.568160 -0.250801 -1.865370 16.377300 -0.000001 -0.000001 36.611000 -5.416760 -0.199939 6.456720 -0.000001 -0.000000 16.693200 -7.942000 -10.708000 12.994200 -0.242716 4.980390 -86.010100 -9.112800 -66.231300 5.348090 -0.000007 -0.000001 -62.261400 -45.363000 -96.032200 24.328600 0.000019 0.000005 18.101100 11.582900 -58.438900 22.291600 -0.000001 0.000005 19.110300 5.308600 -0.170384 12.994500 -0.242716 -4.980390 92.582000 -8.472140 -72.981500 -5.348130 -0.000001 -0.000004 -54.600100 -38.182800 -86.424400 -24.328900 0.000322 -0.000009 6.080160 3.323020 -61.451400 -22.291500 -0.000108 -0.000004 29.747200 5.469690 -5.358750 -2.192480 -6.469440 -0.000000 -173.852000 -15.958000 4.520460 39.081100 -0.000007 -0.000012 -0.174513 0.285819 31.407400 40.985400 -0.000006 -0.000013 1.268610 4.818910 -72.958100 11.754300 -0.000000 0.000003 -0.000109 -0.001109 -16.620000 -2.192510 6.469440 -0.000001 170.808000 21.328300 -173.881000 -39.081100 -0.002282 -0.040193 -0.196264 0.342634 30.218700 -40.985400 0.000008 0.000006 3.060850 14.713000 -72.641600 -11.754300 -0.000006 -0.000006 -0.001413 -0.021115 -17.431700
0.000000 0.000000 0.000000 0.000000 0.000000 -0.000000 1.239870 90.424500 2.279170 89.271700 -5.309390 12.588100 15.735700 0.000005 -0.000001 89.039000 83.820800 -89.983200 8.984550 -0.406207 -0.000000 4.589910 -0.180753 -1.878880 16.377300 -0.000001 -0.000001 36.712000 -5.428430 -0.146235 6.456720 -0.000001 -0.000000 16.782600 -8.041690 -10.570500 12.994200 -0.242716 4.980390 -85.987200 -9.127940 -66.144800 5.348090 -0.000007 -0.000001 -62.678800 -45.433600 -96.310700 24.328600 0.000019 0.000005 18.012400 11.381100 -58.747000 22.291600 -0.000001 0.000005 19.497800 5.310130 -0.213364 12.994500 -0.242716 -4.980390 92.593000 -8.483010 -72.933600 -5.348130 -0.000001 -0.000004 -54.878500 -38.387500 -86.664200 -24.328900 0.000322 -0.000009 6.169880 3.341620 -61.671600 -22.291500 -0.000108 -0.000004 29.834700 5.472120 -5.449830 -2.192480 -6.469440 -0.000000 -173.876000 -15.926000 4.569690 39.081100 -0.000007 -0.000012 -0.173618 0.283985 31.440300 40.985400 -0.000006 -0.000013 1.310270 4.833810 -72.935900 11.754300 -0.000000 0.000003 -0.000100 -0.001029 -16.617000 -2.192510 6.469440 -0.000001 170.699000 21.340600 -173.793000 -39.081100 -0.002282 -0.040193 -0.205345 0.358315 30.212500 -40.985400 0.000008 0.000006 2.825790 14.809400 -72.528500 -11.754300 -0.000006 -0.000006 -0.001334 -0.020042 -17.388100
